HIERARCHY
ROOT hip
{
	OFFSET 0.000000 0.000000 0.000000 
	CHANNELS 6 Xposition Yposition Zposition Xrotation Zrotation Yrotation
	JOINT abdomen
	{
		OFFSET 0.000000 3.402643 0.000000 
		CHANNELS 3 Xrotation Zrotation Yrotation
		JOINT chest
		{
			OFFSET 0.000000 8.438565 -0.680529 
			CHANNELS 3 Xrotation Zrotation Yrotation
			JOINT neck
			{
				OFFSET 0.000000 10.207942 -0.272212 
				CHANNELS 3 Xrotation Zrotation Yrotation
				JOINT head
				{
					OFFSET 0.000000 3.130431 0.000000 
					CHANNELS 3 Xrotation Zrotation Yrotation
					End Site
					{
						OFFSET 0.000000 3.130435 0.000000 
					}
				}
			}
			JOINT lCollar
			{
				OFFSET 3.470700 6.669187 -0.816635 
				CHANNELS 3 Yrotation Zrotation Xrotation
				JOINT lShldr
				{
					OFFSET 3.198488 0.000000 0.000000 
					CHANNELS 3 Zrotation Yrotation Xrotation
					JOINT lForeArm
					{
						OFFSET 10.139888 0.000000 0.000000 
						CHANNELS 3 Yrotation Zrotation Xrotation
						JOINT lHand
						{
							OFFSET 8.370511 0.000000 0.000000 
							CHANNELS 3 Zrotation Yrotation Xrotation
							End Site
							{
								OFFSET 4.083176 0.000000 0.000000 
							}
						}
					}
				}
			}
			JOINT rCollar
			{
				OFFSET -3.470700 6.669187 -0.816635 
				CHANNELS 3 Yrotation Zrotation Xrotation
				JOINT rShldr
				{
					OFFSET -3.198488 0.000000 0.000000 
					CHANNELS 3 Zrotation Yrotation Xrotation
					JOINT rForeArm
					{
						OFFSET -10.139888 0.000000 0.000000 
						CHANNELS 3 Yrotation Zrotation Xrotation
						JOINT rHand
						{
							OFFSET -8.370511 0.000000 0.000000 
							CHANNELS 3 Zrotation Yrotation Xrotation
							End Site
							{
								OFFSET -4.083176 0.000000 0.000000 
							}
						}
					}
				}
			}
		}
	}
	JOINT lThigh
	{
		OFFSET 5.308129 -1.633274 1.361059 
		CHANNELS 3 Xrotation Zrotation Yrotation
		JOINT lShin
		{
			OFFSET -2.041588 -20.007561 0.000000 
			CHANNELS 3 Xrotation Zrotation Yrotation
			JOINT lFoot
			{
				OFFSET 0.000000 -19.190928 -1.224953 
				CHANNELS 3 Xrotation Yrotation Zrotation
				End Site
				{
					OFFSET 0.000000 -2.449906 4.627600 
				}
			}
		}
	}
	JOINT rThigh
	{
		OFFSET -5.308129 -1.633274 1.361059 
		CHANNELS 3 Xrotation Zrotation Yrotation
		JOINT rShin
		{
			OFFSET 2.041588 -20.007561 0.000000 
			CHANNELS 3 Xrotation Zrotation Yrotation
			JOINT rFoot
			{
				OFFSET 0.000000 -19.190928 -1.224953 
				CHANNELS 3 Xrotation Yrotation Zrotation
				End Site
				{
					OFFSET 0.000000 -2.449906 4.627600 
				}
			}
		}
	}
}
MOTION
Frames: 8
Frame Time: 0.033333
-0.005986 53.751179 1.057334 22.324219 -2.783203 22.401869 25.620609 -3.843995 -10.532119 -21.474609 10.771485 4.228516 51.063168 8.107644 2.471410 -74.326172 -14.150389 -0.429688 2.000000 -2.000000 0.000000 -67.460938 -15.214844 31.162109 -70.971092 -1.394980 -2.839673 23.232986 18.898836 -4.665749 -2.000000 2.000000 0.000000 85.478516 -20.468748 -2.832031 63.557976 1.333352 -2.452115 -1.824072 -49.519257 7.533851 10.429543 13.183099 -21.444565 -5.267050 -5.362349 -0.129932 30.160028 3.958673 -8.930973 -26.727312 -9.598845 -15.916584 -3.573410 5.243104 -0.159177 18.899752 -12.256375 3.281989 
0.065626 54.129333 3.191800 21.103518 -2.626953 21.464397 25.524904 -4.467465 -9.469554 -21.279297 11.113281 4.492188 51.063168 8.107644 2.471410 -71.835938 -14.599609 -0.861837 2.000000 -2.000000 0.000000 -70.468750 -9.843750 28.396767 -66.924103 -1.533306 -2.694755 23.232986 18.898836 -4.665749 -2.000000 2.000000 0.000000 86.884766 -20.820313 -5.315969 63.382442 1.353417 -2.460730 -1.406294 -49.899803 6.339979 7.762437 10.844822 -21.506161 2.977337 -5.328885 -0.681865 31.598749 1.957156 -7.473665 -25.309647 -8.767916 -14.953300 0.614972 5.230837 0.220292 16.415094 -12.186723 3.460645 
0.122867 54.263248 4.677473 20.048828 -2.314453 20.741793 25.251362 -4.836651 -8.477643 -21.074217 11.621095 4.787123 51.063168 8.107644 2.471410 -69.492188 -14.843748 -1.503907 2.000000 -2.000000 0.000000 -73.447266 -4.638672 25.233589 -63.419460 -1.632742 -2.385581 23.072725 19.178463 -4.807390 -2.000000 2.000000 0.000000 88.349609 -20.957031 -7.649978 63.382442 1.353417 -2.460730 -1.814155 -49.880577 6.450196 4.763120 8.674550 -21.279684 11.604298 -5.265794 -1.299765 32.838573 0.710568 -6.495060 -23.833769 -8.151986 -14.111423 3.248114 5.218509 -0.222620 14.111921 -12.439266 4.277455 
0.177440 54.342045 5.923879 18.818359 -2.001953 19.853172 25.122009 -5.453203 -7.412491 -20.888672 11.962892 5.048828 51.063168 8.107644 2.471410 -67.158203 -15.224609 -2.285157 2.000000 -2.000000 0.000000 -75.722656 -0.283203 22.031187 -60.949181 -1.535817 -2.400997 22.959465 19.117279 -4.593114 -2.000000 2.000000 0.000000 89.335938 -20.859375 -9.873047 63.206371 1.362600 -2.450418 -1.768026 -50.241859 6.010237 1.210214 6.963311 -19.705515 20.571413 -4.894898 -2.197351 33.250534 0.340382 -5.576912 -22.320021 -7.292436 -14.174479 5.542696 5.171749 0.494254 12.997614 -12.593674 3.781365 
0.275327 54.420807 7.007654 17.578125 -1.845703 19.071949 24.979481 -5.903868 -6.262915 -20.507813 12.285157 5.539188 51.063168 8.107644 2.471410 -64.960938 -15.361328 -3.076172 2.000000 -2.000000 0.000000 -77.167969 3.632813 19.111326 -59.546585 -1.611994 -2.533463 22.896473 18.959560 -4.628688 -2.000000 2.000000 0.000000 90.410156 -20.898439 -11.562498 63.030323 1.362033 -2.440673 -1.875334 -50.759548 5.822669 -4.519148 6.374915 -15.082002 31.830122 -4.454016 -3.583184 34.355091 -0.022991 -4.834788 -20.838778 -6.581757 -13.809932 7.311835 5.154262 0.786686 12.617423 -12.729233 3.651398 
0.378367 54.460213 8.130946 16.347656 -1.689453 18.105183 24.844461 -6.513115 -5.194797 -20.302734 12.792970 5.842006 51.063168 8.107644 2.471410 -63.330082 -15.595700 -3.886719 2.000000 -2.000000 0.000000 -78.398438 7.050781 15.860570 -58.669632 -1.448747 -2.249359 23.005045 19.206226 -4.979671 -2.000000 2.000000 0.000000 91.386719 -21.171875 -12.747668 62.854263 1.371215 -2.430362 -2.155049 -50.925900 5.671862 -11.824511 6.679044 -10.160758 44.531021 -3.791753 -3.755488 35.097050 1.710366 -4.847797 -18.726322 -6.032922 -14.139771 8.016027 5.147224 0.659583 11.480290 -12.298944 3.252863 
0.553318 54.436573 9.411406 15.283204 -1.533203 17.304424 24.706409 -7.037490 -4.269018 -20.097656 13.144531 6.105736 51.063168 8.107644 2.471410 -61.865238 -15.625000 -4.833986 2.000000 -2.000000 0.000000 -79.355469 10.585937 12.111170 -57.967331 -1.607004 -2.279241 22.914865 18.989281 -4.619923 -2.000000 2.000000 0.000000 91.982422 -21.464846 -13.235994 62.680149 1.521419 -2.490100 -2.208640 -51.101757 5.474441 -17.852770 7.214389 -6.924546 52.585625 -3.372840 -4.438946 34.907314 3.686827 -4.734828 -15.922585 -5.133645 -14.677777 7.307415 5.160570 0.787001 10.481958 -11.800009 2.509278 
0.731848 54.381432 10.766237 14.218751 -1.367188 16.503672 24.530682 -7.493757 -3.109172 -19.902346 13.476563 6.386719 51.063168 8.107644 2.471410 -60.400394 -15.634764 -5.957031 2.000000 -2.000000 0.000000 -80.537109 13.857421 8.613282 -57.780136 -1.466542 -2.218986 23.028889 19.021168 -4.801711 -2.000000 2.000000 0.000000 92.597656 -22.041016 -13.007813 62.504353 1.531169 -2.489534 -2.542941 -51.082764 5.790278 -22.430574 6.874579 -6.506564 55.745144 -3.002344 -4.902225 33.965588 4.199618 -4.376919 -12.585061 -4.216947 -15.033692 5.715915 5.013485 0.318630 9.592028 -11.001293 1.987926 
